<?xml version="1.0" standalone="no"?>
<svg xmlns="http://www.w3.org/2000/svg" xmlns:xlink="http://www.w3.org/1999/xlink" version="1.1" id="v-2" width="100%" height="100%" xmlns:ev="http://www.w3.org/2001/xml-events" style="overflow: hidden; "><g id="v-3" class="joint-viewport svg-pan-zoom_viewport" transform="matrix(0.9999999899921487,0,0,0.9999999899921487,0,0)" style="transform: matrix(1, 0, 0, 1, 0, 0);"><g model-id="b60a83fc-9a82-422b-a0ff-3ad70a5c80b3" id="j_162" class="joint-cell joint-type-uml joint-type-uml-class joint-element joint-theme-default" data-type="uml.Class" fill="#ffffff" stroke="none" transform="translate(1,151)"><g class="rotatable" id="v-1990"><g class="scalable" transform="scale(1.61642578125,0.6916666666666667)"><rect class="uml-class-name-rect" id="v-1991" width="200" stroke="#ffffff" stroke-width="0.5" fill="#feb662" height="40" transform="translate(0,0)"/><rect class="uml-class-attrs-rect" id="v-1992" width="200" stroke="#fff" stroke-width="0.5" fill="#fdc886" height="200" transform="translate(0,40)"/><rect class="uml-class-methods-rect" id="v-1993" width="200" stroke="#fff" stroke-width="0.5" fill="#fdc886" display="none" height="20" transform="translate(0,240)"/></g><text class="uml-class-name-text" id="v-1994" font-size="12" xml:space="preserve" y="0.8em" text-anchor="middle" font-weight="bold" fill="black" font-family="Times New Roman" transform="matrix(1,0,0,1,161.6,8.2)"><tspan id="v-1997" class="v-line" dy="0em">User</tspan></text><text class="uml-class-attrs-text" id="v-1995" font-size="12" xml:space="preserve" y="0.8em" fill="black" font-family="monospace" transform="matrix(1,0,0,1,5,43.2)"><tspan id="v-1998" class="v-line" dy="0em">INT              id                  PK AI</tspan><tspan id="v-1999" class="v-line" dy="1em" x="0">VARCHAR(50)      first_name          NN</tspan><tspan id="v-2000" class="v-line" dy="1em" x="0">VARCHAR(50)      last_name           NN</tspan><tspan id="v-2001" class="v-line" dy="1em" x="0">VARCHAR(255)     email               NN UQ</tspan><tspan id="v-2002" class="v-line" dy="1em" x="0">VARCHAR(10)      phone               NN</tspan><tspan id="v-2003" class="v-line" dy="1em" x="0">TEXT             password</tspan><tspan id="v-2004" class="v-line" dy="1em" x="0">ENUM("cus","stf  role                NN</tspan><tspan id="v-2005" class="v-line" dy="1em" x="0">BOOLEAN          status              NN</tspan><tspan id="v-2006" class="v-line" dy="1em" x="0">DATETIME         create_at           NN</tspan></text><text class="uml-class-methods-text" id="v-1996" font-size="12" display="none" xml:space="preserve" y="0.8em" fill="black" font-family="Times New Roman" transform="matrix(1,0,0,1,5,5)"><tspan id="v-2007" class="v-line v-empty-line" dy="0em" style="fill-opacity: 0; stroke-opacity: 0;">-</tspan></text></g></g><g model-id="917b4388-0b04-4c06-b01e-bbba71111a0e" id="j_163" class="joint-cell joint-type-uml joint-type-uml-class joint-element joint-theme-default" data-type="uml.Class" fill="#ffffff" stroke="none" transform="translate(510,383)"><g class="rotatable" id="v-2008"><g class="scalable" transform="scale(2.347666015625,0.69)"><rect class="uml-class-name-rect" id="v-2009" width="200" stroke="#ffffff" stroke-width="0.5" fill="#feb662" height="40" transform="translate(0,0)"/><rect class="uml-class-attrs-rect" id="v-2010" width="200" stroke="#fff" stroke-width="0.5" fill="#fdc886" height="160" transform="translate(0,40)"/><rect class="uml-class-methods-rect" id="v-2011" width="200" stroke="#fff" stroke-width="0.5" fill="#fdc886" display="none" height="20" transform="translate(0,200)"/></g><text class="uml-class-name-text" id="v-2012" font-size="12" xml:space="preserve" y="0.8em" text-anchor="middle" font-weight="bold" fill="black" font-family="Times New Roman" transform="matrix(1,0,0,1,234.8,8.1)"><tspan id="v-2015" class="v-line" dy="0em">Machine</tspan></text><text class="uml-class-attrs-text" id="v-2013" font-size="12" xml:space="preserve" y="0.8em" fill="black" font-family="monospace" transform="matrix(1,0,0,1,5,41.1)"><tspan id="v-2016" class="v-line" dy="0em">INT              id                  PK</tspan><tspan id="v-2017" class="v-line" dy="1em" x="0">INT              machine_size_id     NN FK -&gt; Machine_Size.id</tspan><tspan id="v-2018" class="v-line" dy="1em" x="0">VARCHAR(10)      code                NN UQ</tspan><tspan id="v-2019" class="v-line" dy="1em" x="0">INT              duration            NN</tspan><tspan id="v-2020" class="v-line" dy="1em" x="0">BOOLEAN          status_available    NN</tspan><tspan id="v-2021" class="v-line" dy="1em" x="0">BOOLEAN          status_health       NN</tspan><tspan id="v-2022" class="v-line" dy="1em" x="0">DATETIME         create_at           NN</tspan></text><text class="uml-class-methods-text" id="v-2014" font-size="12" display="none" xml:space="preserve" y="0.8em" fill="black" font-family="Times New Roman" transform="matrix(1,0,0,1,5,5)"><tspan id="v-2023" class="v-line v-empty-line" dy="0em" style="fill-opacity: 0; stroke-opacity: 0;">-</tspan></text></g></g><g model-id="a459eeba-f44b-4ba2-9f78-6767aff02edf" id="j_164" class="joint-cell joint-type-uml joint-type-uml-class joint-element joint-theme-default" data-type="uml.Class" fill="#ffffff" stroke="none" transform="translate(406,133)"><g class="rotatable" id="v-2024"><g class="scalable" transform="scale(2.23220703125,0.6928571428571428)"><rect class="uml-class-name-rect" id="v-2025" width="200" stroke="#ffffff" stroke-width="0.5" fill="#feb662" height="40" transform="translate(0,0)"/><rect class="uml-class-attrs-rect" id="v-2026" width="200" stroke="#fff" stroke-width="0.5" fill="#fdc886" height="240" transform="translate(0,40)"/><rect class="uml-class-methods-rect" id="v-2027" width="200" stroke="#fff" stroke-width="0.5" fill="#fdc886" display="none" height="20" transform="translate(0,280)"/></g><text class="uml-class-name-text" id="v-2028" font-size="12" xml:space="preserve" y="0.8em" text-anchor="middle" font-weight="bold" fill="black" font-family="Times New Roman" transform="matrix(1,0,0,1,223.2,8.2)"><tspan id="v-2031" class="v-line" dy="0em">Reserve_Machine</tspan></text><text class="uml-class-attrs-text" id="v-2029" font-size="12" xml:space="preserve" y="0.8em" fill="black" font-family="monospace" transform="matrix(1,0,0,1,5,45.2)"><tspan id="v-2032" class="v-line" dy="0em">INT              id                  PK AI</tspan><tspan id="v-2033" class="v-line" dy="1em" x="0">INT              user_id             NN FK -&gt; User.id</tspan><tspan id="v-2034" class="v-line" dy="1em" x="0">INT              machine_id          FK -&gt; Machine.id</tspan><tspan id="v-2035" class="v-line" dy="1em" x="0">INT              machine_size_id     FK -&gt; Machine_Size.id</tspan><tspan id="v-2036" class="v-line" dy="1em" x="0">CHAR(6)          code                NN</tspan><tspan id="v-2037" class="v-line" dy="1em" x="0">INT              cost                NN</tspan><tspan id="v-2038" class="v-line" dy="1em" x="0">DATETIME         arrive_at           NN</tspan><tspan id="v-2039" class="v-line" dy="1em" x="0">ENUM("waiting",  status              NN</tspan><tspan id="v-2040" class="v-line" dy="1em" x="0">DATETIME         create_at           NN</tspan><tspan id="v-2041" class="v-line" dy="1em" x="0">DATETIME         actual_arrive</tspan><tspan id="v-2042" class="v-line" dy="1em" x="0">DATETIME         work_at</tspan></text><text class="uml-class-methods-text" id="v-2030" font-size="12" display="none" xml:space="preserve" y="0.8em" fill="black" font-family="Times New Roman" transform="matrix(1,0,0,1,5,5)"><tspan id="v-2043" class="v-line v-empty-line" dy="0em" style="fill-opacity: 0; stroke-opacity: 0;">-</tspan></text></g></g><g model-id="6fc82bba-7fa6-447f-9d27-b4a80784ae54" id="j_165" class="joint-cell joint-type-uml joint-type-uml-class joint-element joint-theme-default" data-type="uml.Class" fill="#ffffff" stroke="none" transform="translate(0,382)"><g class="rotatable" id="v-2044"><g class="scalable" transform="scale(2.463125,0.6857142857142857)"><rect class="uml-class-name-rect" id="v-2045" width="200" stroke="#ffffff" stroke-width="0.5" fill="#feb662" height="40" transform="translate(0,0)"/><rect class="uml-class-attrs-rect" id="v-2046" width="200" stroke="#fff" stroke-width="0.5" fill="#fdc886" height="100" transform="translate(0,40)"/><rect class="uml-class-methods-rect" id="v-2047" width="200" stroke="#fff" stroke-width="0.5" fill="#fdc886" display="none" height="20" transform="translate(0,140)"/></g><text class="uml-class-name-text" id="v-2048" font-size="12" xml:space="preserve" y="0.8em" text-anchor="middle" font-weight="bold" fill="black" font-family="Times New Roman" transform="matrix(1,0,0,1,246.3,8.1)"><tspan id="v-2051" class="v-line" dy="0em">Review_Reserve</tspan></text><text class="uml-class-attrs-text" id="v-2049" font-size="12" xml:space="preserve" y="0.8em" fill="black" font-family="monospace" transform="matrix(1,0,0,1,5,38.1)"><tspan id="v-2052" class="v-line" dy="0em">INT              reserve_id          PK FK -&gt; Reserve_Machine.id</tspan><tspan id="v-2053" class="v-line" dy="1em" x="0">ENUM(0,1,2,3,4,  rating              NN</tspan><tspan id="v-2054" class="v-line" dy="1em" x="0">TEXT             description</tspan><tspan id="v-2055" class="v-line" dy="1em" x="0">DATETIME         create_at           NN</tspan></text><text class="uml-class-methods-text" id="v-2050" font-size="12" display="none" xml:space="preserve" y="0.8em" fill="black" font-family="Times New Roman" transform="matrix(1,0,0,1,5,5)"><tspan id="v-2056" class="v-line v-empty-line" dy="0em" style="fill-opacity: 0; stroke-opacity: 0;">-</tspan></text></g></g><g model-id="f8ab744a-20e3-4644-824d-812d15fabc77" id="j_166" class="joint-cell joint-type-uml joint-type-uml-class joint-element joint-theme-default" data-type="uml.Class" fill="#ffffff" stroke="none" transform="translate(930,181)"><g class="rotatable" id="v-2057"><g class="scalable" transform="scale(1.61642578125,0.6857142857142857)"><rect class="uml-class-name-rect" id="v-2058" width="200" stroke="#ffffff" stroke-width="0.5" fill="#feb662" height="40" transform="translate(0,0)"/><rect class="uml-class-attrs-rect" id="v-2059" width="200" stroke="#fff" stroke-width="0.5" fill="#fdc886" height="100" transform="translate(0,40)"/><rect class="uml-class-methods-rect" id="v-2060" width="200" stroke="#fff" stroke-width="0.5" fill="#fdc886" display="none" height="20" transform="translate(0,140)"/></g><text class="uml-class-name-text" id="v-2061" font-size="12" xml:space="preserve" y="0.8em" text-anchor="middle" font-weight="bold" fill="black" font-family="Times New Roman" transform="matrix(1,0,0,1,161.6,8.1)"><tspan id="v-2064" class="v-line" dy="0em">Machine_Size</tspan></text><text class="uml-class-attrs-text" id="v-2062" font-size="12" xml:space="preserve" y="0.8em" fill="black" font-family="monospace" transform="matrix(1,0,0,1,5,38.1)"><tspan id="v-2065" class="v-line" dy="0em">INT              id                  PK AI</tspan><tspan id="v-2066" class="v-line" dy="1em" x="0">VARCHAR(15)      size                NN</tspan><tspan id="v-2067" class="v-line" dy="1em" x="0">INT              capacity            NN</tspan><tspan id="v-2068" class="v-line" dy="1em" x="0">INT              cost                NN</tspan></text><text class="uml-class-methods-text" id="v-2063" font-size="12" display="none" xml:space="preserve" y="0.8em" fill="black" font-family="Times New Roman" transform="matrix(1,0,0,1,5,5)"><tspan id="v-2069" class="v-line v-empty-line" dy="0em" style="fill-opacity: 0; stroke-opacity: 0;">-</tspan></text></g></g><g model-id="ced0cd1a-ed77-46a0-9c0c-fe6cbaa66ac2" id="j_167" class="joint-cell joint-type-uml joint-type-uml-class joint-element joint-theme-default" data-type="uml.Class" fill="#ffffff" stroke="none" transform="translate(2,0)"><g class="rotatable" id="v-2070"><g class="scalable" transform="scale(1.61642578125,0.6833333333333333)"><rect class="uml-class-name-rect" id="v-2071" width="200" stroke="#ffffff" stroke-width="0.5" fill="#feb662" height="40" transform="translate(0,0)"/><rect class="uml-class-attrs-rect" id="v-2072" width="200" stroke="#fff" stroke-width="0.5" fill="#fdc886" height="80" transform="translate(0,40)"/><rect class="uml-class-methods-rect" id="v-2073" width="200" stroke="#fff" stroke-width="0.5" fill="#fdc886" display="none" height="20" transform="translate(0,120)"/></g><text class="uml-class-name-text" id="v-2074" font-size="12" xml:space="preserve" y="0.8em" text-anchor="middle" font-weight="bold" fill="black" font-family="Times New Roman" transform="matrix(1,0,0,1,161.6,8)"><tspan id="v-2077" class="v-line" dy="0em">Service</tspan></text><text class="uml-class-attrs-text" id="v-2075" font-size="12" xml:space="preserve" y="0.8em" fill="black" font-family="monospace" transform="matrix(1,0,0,1,5,37)"><tspan id="v-2078" class="v-line" dy="0em">INT              id                  PK AI</tspan><tspan id="v-2079" class="v-line" dy="1em" x="0">VARCHAR(50)      name                NN</tspan><tspan id="v-2080" class="v-line" dy="1em" x="0">INT              price               NN</tspan></text><text class="uml-class-methods-text" id="v-2076" font-size="12" display="none" xml:space="preserve" y="0.8em" fill="black" font-family="Times New Roman" transform="matrix(1,0,0,1,5,5)"><tspan id="v-2081" class="v-line v-empty-line" dy="0em" style="fill-opacity: 0; stroke-opacity: 0;">-</tspan></text></g></g><g model-id="ab9b73ab-d0aa-4835-b328-0059430e95e5" id="j_168" class="joint-cell joint-type-uml joint-type-uml-class joint-element joint-theme-default" data-type="uml.Class" fill="#ffffff" stroke="none" transform="translate(382,3)"><g class="rotatable" id="v-2082"><g class="scalable" transform="scale(2.463125,0.68)"><rect class="uml-class-name-rect" id="v-2083" width="200" stroke="#ffffff" stroke-width="0.5" fill="#feb662" height="40" transform="translate(0,0)"/><rect class="uml-class-attrs-rect" id="v-2084" width="200" stroke="#fff" stroke-width="0.5" fill="#fdc886" height="60" transform="translate(0,40)"/><rect class="uml-class-methods-rect" id="v-2085" width="200" stroke="#fff" stroke-width="0.5" fill="#fdc886" display="none" height="20" transform="translate(0,100)"/></g><text class="uml-class-name-text" id="v-2086" font-size="12" xml:space="preserve" y="0.8em" text-anchor="middle" font-weight="bold" fill="black" font-family="Times New Roman" transform="matrix(1,0,0,1,246.3,7.9)"><tspan id="v-2089" class="v-line" dy="0em">Reserve_Service</tspan></text><text class="uml-class-attrs-text" id="v-2087" font-size="12" xml:space="preserve" y="0.8em" fill="black" font-family="monospace" transform="matrix(1,0,0,1,5,35.9)"><tspan id="v-2090" class="v-line" dy="0em">INT              reserve_id          PK FK -&gt; Reserve_Machine.id</tspan><tspan id="v-2091" class="v-line" dy="1em" x="0">INT              service_id          PK FK -&gt; Service.id</tspan></text><text class="uml-class-methods-text" id="v-2088" font-size="12" display="none" xml:space="preserve" y="0.8em" fill="black" font-family="Times New Roman" transform="matrix(1,0,0,1,5,5)"><tspan id="v-2092" class="v-line v-empty-line" dy="0em" style="fill-opacity: 0; stroke-opacity: 0;">-</tspan></text></g></g><g model-id="cdbb42f1-c67c-4d08-8bf6-f89bd9b1652f" id="j_169" class="joint-cell joint-type-uml joint-type-uml-relationship joint-type-uml-relationship-nonidentifying joint-type-uml-relationship-nonidentifying-mandatory_one_optional_many joint-link joint-theme-default" data-type="uml.relationship.nonidentifying.mandatory_one_optional_many" fill="transparent"><path class="connection" stroke="black" d="M 869 372 1004 285" id="v-2103" stroke-dasharray="3,3"/><path class="marker-source" fill="none" stroke="black" d="M 0 0 L 10 10 L 0 10 L 10 10 L 0 20 L 10 10 a 5,5 0 1,0 10,0 a 5,5 0 1,0 -10,0" id="v-2101" transform="translate(846.5950124407435,374.58655909148956) scale(1,1) rotate(-32.71767425537109)"/><path class="marker-target" fill="none" stroke="black" d="M 0 0 L 10 0 M 10 0 L 10 10 L 10 -10 M 15 0 L 15 10 L 15 -10" id="v-2102" transform="translate(1017.0000226348797,276.9999932033861) scale(1,1) rotate(-212.71766662597656)"/><path class="connection-wrap" d="M 869 372 1004 285"/><g class="labels"><g class="label" id="v-2097" label-idx="0" cursor="default" transform="translate(936.5, 328.5)" fill="black"><rect id="v-2099" fill="white" rx="3" ry="3" width="0" height="0" transform="matrix(1,0,0,1,0,0)"/><text id="v-2098" font-size="14" display="none" xml:space="preserve" y="0.8em" text-anchor="middle" pointer-events="none"><tspan id="v-2100" class="v-line v-empty-line" dy="0em" style="fill-opacity: 0; stroke-opacity: 0;">-</tspan></text></g></g></g><g model-id="b9c5245e-9aea-4c10-93ad-25da86f140b5" id="j_170" class="joint-cell joint-type-uml joint-type-uml-relationship joint-type-uml-relationship-nonidentifying joint-type-uml-relationship-nonidentifying-mandatory_one_optional_many joint-link joint-theme-default" data-type="uml.relationship.nonidentifying.mandatory_one_optional_many" fill="transparent"><path class="connection" stroke="black" d="M 386 232 339 233" id="v-2114" stroke-dasharray="3,3"/><path class="marker-source" fill="none" stroke="black" d="M 0 0 L 10 10 L 0 10 L 10 10 L 0 20 L 10 10 a 5,5 0 1,0 10,0 a 5,5 0 1,0 -10,0" id="v-2112" transform="translate(406.12193201188904,241.99926158434184) scale(1,1) rotate(-180.69869995117188)"/><path class="marker-target" fill="none" stroke="black" d="M 0 0 L 10 0 M 10 0 L 10 10 L 10 -10 M 15 0 L 15 10 L 15 -10" id="v-2113" transform="translate(324.00000832518236,232.9999954357533) scale(1,1) rotate(-0.6986944079399109)"/><path class="connection-wrap" d="M 386 232 339 233"/><g class="labels"><g class="label" id="v-2108" label-idx="0" cursor="default" transform="translate(362.5, 232.5)" fill="black"><rect id="v-2110" fill="white" rx="3" ry="3" width="0" height="0" transform="matrix(1,0,0,1,0,0)"/><text id="v-2109" font-size="14" display="none" xml:space="preserve" y="0.8em" text-anchor="middle" pointer-events="none"><tspan id="v-2111" class="v-line v-empty-line" dy="0em" style="fill-opacity: 0; stroke-opacity: 0;">-</tspan></text></g></g></g><g model-id="cb0e9da4-5b4f-41c3-91a1-878622dc1ff1" id="j_171" class="joint-cell joint-type-uml joint-type-uml-relationship joint-type-uml-relationship-nonidentifying joint-type-uml-relationship-nonidentifying-mandatory_one_optional_many joint-link joint-theme-default" data-type="uml.relationship.nonidentifying.mandatory_one_optional_many" fill="transparent"><path class="connection" stroke="black" d="M 689 345 702 370" id="v-2125" stroke-dasharray="3,3"/><path class="marker-source" fill="none" stroke="black" d="M 0 0 L 10 10 L 0 10 L 10 10 L 0 20 L 10 10 a 5,5 0 1,0 10,0 a 5,5 0 1,0 -10,0" id="v-2123" transform="translate(688.8799702663754,322.4014562849466) scale(1,1) rotate(62.622283935546875)"/><path class="marker-target" fill="none" stroke="black" d="M 0 0 L 10 0 M 10 0 L 10 10 L 10 -10 M 15 0 L 15 10 L 15 -10" id="v-2124" transform="translate(708.9999930547564,382.99998504337134) scale(1,1) rotate(-117.37770080566406)"/><path class="connection-wrap" d="M 689 345 702 370"/><g class="labels"><g class="label" id="v-2119" label-idx="0" cursor="default" transform="translate(695.5, 357.5)" fill="black"><rect id="v-2121" fill="white" rx="3" ry="3" width="0" height="0" transform="matrix(1,0,0,1,0,0)"/><text id="v-2120" font-size="14" display="none" xml:space="preserve" y="0.8em" text-anchor="middle" pointer-events="none"><tspan id="v-2122" class="v-line v-empty-line" dy="0em" style="fill-opacity: 0; stroke-opacity: 0;">-</tspan></text></g></g></g><g model-id="77e0e54a-566b-4fea-8892-346d388c0b92" id="j_172" class="joint-cell joint-type-uml joint-type-uml-relationship joint-type-uml-relationship-nonidentifying joint-type-uml-relationship-nonidentifying-mandatory_one_optional_many joint-link joint-theme-default" data-type="uml.relationship.nonidentifying.mandatory_one_optional_many" fill="transparent"><path class="connection" stroke="black" d="M 872 230 915 230" id="v-2136" stroke-dasharray="3,3"/><path class="marker-source" fill="none" stroke="black" d="M 0 0 L 10 10 L 0 10 L 10 10 L 0 20 L 10 10 a 5,5 0 1,0 10,0 a 5,5 0 1,0 -10,0" id="v-2134" transform="translate(852,219.99999999999994) scale(1,1) rotate(0)"/><path class="marker-target" fill="none" stroke="black" d="M 0 0 L 10 0 M 10 0 L 10 10 L 10 -10 M 15 0 L 15 10 L 15 -10" id="v-2135" transform="translate(930,230.00000000000006) scale(1,1) rotate(-180)"/><path class="connection-wrap" d="M 872 230 915 230"/><g class="labels"><g class="label" id="v-2130" label-idx="0" cursor="default" transform="translate(893.5, 230)" fill="black"><rect id="v-2132" fill="white" rx="3" ry="3" width="0" height="0" transform="matrix(1,0,0,1,0,0)"/><text id="v-2131" font-size="14" display="none" xml:space="preserve" y="0.8em" text-anchor="middle" pointer-events="none"><tspan id="v-2133" class="v-line v-empty-line" dy="0em" style="fill-opacity: 0; stroke-opacity: 0;">-</tspan></text></g></g></g><g model-id="58e03811-d6b9-4a56-acdc-439c0a608ca7" id="j_173" class="joint-cell joint-type-uml joint-type-uml-relationship joint-type-uml-relationship-identifying joint-type-uml-relationship-identifying-mandatory_one_optional_one joint-link joint-theme-default" data-type="uml.relationship.identifying.mandatory_one_optional_one" fill="transparent"><path class="connection" stroke="black" d="M 359 371 430 334"/><path class="marker-source" fill="none" stroke="black" d="M 10 0 L 10 20 L 10 10 L 0 10 L 14 10 a 5,5 0 1,0 10,0 a 5,5 0 1,0 -10,0" id="v-2145" transform="translate(333.35992600957053,373.14168379960057) scale(1,1) rotate(-27.645975112915032)"/><path class="marker-target" fill="none" stroke="black" d="M 0 0 L 10 0 M 10 0 L 10 10 L 10 -10 M 15 0 L 15 10 L 15 -10" id="v-2146" transform="translate(442.9999983893193,326.99998840946114) scale(1,1) rotate(-207.64598083496094)"/><path class="connection-wrap" d="M 359 371 430 334"/><g class="labels"><g class="label" id="v-2141" label-idx="0" cursor="default" transform="translate(394.5, 352.5)" fill="black"><rect id="v-2143" fill="white" rx="3" ry="3" width="0" height="0" transform="matrix(1,0,0,1,0,0)"/><text id="v-2142" font-size="14" display="none" xml:space="preserve" y="0.8em" text-anchor="middle" pointer-events="none"><tspan id="v-2144" class="v-line v-empty-line" dy="0em" style="fill-opacity: 0; stroke-opacity: 0;">-</tspan></text></g></g></g><g model-id="7c50fea4-c551-40eb-8677-d95d668ae272" id="j_174" class="joint-cell joint-type-uml joint-type-uml-relationship joint-type-uml-relationship-identifying joint-type-uml-relationship-identifying-mandatory_one_optional_many joint-link joint-theme-default" data-type="uml.relationship.identifying.mandatory_one_optional_many" fill="transparent"><path class="connection" stroke="black" d="M 628 91 628 118"/><path class="marker-source" fill="none" stroke="black" d="M 0 0 L 10 10 L 0 10 L 10 10 L 0 20 L 10 10 a 5,5 0 1,0 10,0 a 5,5 0 1,0 -10,0" id="v-2155" transform="translate(638.0000000000001,71) scale(1,1) rotate(-270)"/><path class="marker-target" fill="none" stroke="black" d="M 0 0 L 10 0 M 10 0 L 10 10 L 10 -10 M 15 0 L 15 10 L 15 -10" id="v-2156" transform="translate(627.9999999999999,133) scale(1,1) rotate(-90)"/><path class="connection-wrap" d="M 628 91 628 118"/><g class="labels"><g class="label" id="v-2151" label-idx="0" cursor="default" transform="translate(628, 104.5)" fill="black"><rect id="v-2153" fill="white" rx="3" ry="3" width="0" height="0" transform="matrix(1,0,0,1,0,0)"/><text id="v-2152" font-size="14" display="none" xml:space="preserve" y="0.8em" text-anchor="middle" pointer-events="none"><tspan id="v-2154" class="v-line v-empty-line" dy="0em" style="fill-opacity: 0; stroke-opacity: 0;">-</tspan></text></g></g></g><g model-id="a76ccaec-beb6-4fc0-be94-00723d050955" id="j_175" class="joint-cell joint-type-uml joint-type-uml-relationship joint-type-uml-relationship-identifying joint-type-uml-relationship-identifying-mandatory_one_optional_many joint-link joint-theme-default" data-type="uml.relationship.identifying.mandatory_one_optional_many" fill="transparent"><path class="connection" stroke="black" d="M 362 39 340 40"/><path class="marker-source" fill="none" stroke="black" d="M 0 0 L 10 10 L 0 10 L 10 10 L 0 20 L 10 10 a 5,5 0 1,0 10,0 a 5,5 0 1,0 -10,0" id="v-2165" transform="translate(382.1753980750483,48.998461897988406) scale(1,1) rotate(-181.0050811767578)"/><path class="marker-target" fill="none" stroke="black" d="M 0 0 L 10 0 M 10 0 L 10 10 L 10 -10 M 15 0 L 15 10 L 15 -10" id="v-2166" transform="translate(324.99999426709184,40.00000124602934) scale(1,1) rotate(-1.0050860643386699)"/><path class="connection-wrap" d="M 362 39 340 40"/><g class="labels"><g class="label" id="v-2161" label-idx="0" cursor="default" transform="translate(351, 39.5)" fill="black"><rect id="v-2163" fill="white" rx="3" ry="3" width="0" height="0" transform="matrix(1,0,0,1,0,0)"/><text id="v-2162" font-size="14" display="none" xml:space="preserve" y="0.8em" text-anchor="middle" pointer-events="none"><tspan id="v-2164" class="v-line v-empty-line" dy="0em" style="fill-opacity: 0; stroke-opacity: 0;">-</tspan></text></g></g></g></g><defs id="v-4"/></svg>