<?xml version="1.0" standalone="no"?>
<svg xmlns="http://www.w3.org/2000/svg" xmlns:xlink="http://www.w3.org/1999/xlink" version="1.1" id="v-2" width="100%" height="100%" xmlns:ev="http://www.w3.org/2001/xml-events" style="overflow: hidden; "><g id="v-3" class="joint-viewport svg-pan-zoom_viewport" transform="matrix(0.9999999450368249,0,0,0.9999999450368249,0,0)" style="transform: matrix(1, 0, 0, 1, 0, 0);"><g model-id="e3abdded-3942-4fae-93eb-9e72df8caa45" id="j_323" class="joint-cell joint-type-uml joint-type-uml-class joint-element joint-theme-default" data-type="uml.Class" fill="#ffffff" stroke="none" transform="translate(1,151)"><g class="rotatable" id="v-4376"><g class="scalable" transform="scale(1.61642578125,0.6916666666666667)"><rect class="uml-class-name-rect" id="v-4377" width="200" stroke="#ffffff" stroke-width="0.5" fill="#feb662" height="40" transform="translate(0,0)"/><rect class="uml-class-attrs-rect" id="v-4378" width="200" stroke="#fff" stroke-width="0.5" fill="#fdc886" height="200" transform="translate(0,40)"/><rect class="uml-class-methods-rect" id="v-4379" width="200" stroke="#fff" stroke-width="0.5" fill="#fdc886" display="none" height="20" transform="translate(0,240)"/></g><text class="uml-class-name-text" id="v-4380" font-size="12" xml:space="preserve" y="0.8em" text-anchor="middle" font-weight="bold" fill="black" font-family="Times New Roman" transform="matrix(1,0,0,1,161.6,8.5)"><tspan id="v-4383" class="v-line" dy="0em">Users</tspan></text><text class="uml-class-attrs-text" id="v-4381" font-size="12" xml:space="preserve" y="0.8em" fill="black" font-family="monospace" transform="matrix(1,0,0,1,5,42.9)"><tspan id="v-4384" class="v-line" dy="0em">INT              id                  PK AI</tspan><tspan id="v-4385" class="v-line" dy="1em" x="0">VARCHAR(50)      first_name          NN</tspan><tspan id="v-4386" class="v-line" dy="1em" x="0">VARCHAR(50)      last_name           NN</tspan><tspan id="v-4387" class="v-line" dy="1em" x="0">VARCHAR(255)     email               NN UQ</tspan><tspan id="v-4388" class="v-line" dy="1em" x="0">VARCHAR(10)      phone               NN</tspan><tspan id="v-4389" class="v-line" dy="1em" x="0">TEXT             password</tspan><tspan id="v-4390" class="v-line" dy="1em" x="0">ENUM("cus","stf  role                NN</tspan><tspan id="v-4391" class="v-line" dy="1em" x="0">BOOLEAN          status              NN</tspan><tspan id="v-4392" class="v-line" dy="1em" x="0">DATETIME         create_at           NN</tspan></text><text class="uml-class-methods-text" id="v-4382" font-size="12" display="none" xml:space="preserve" y="0.8em" fill="black" font-family="Times New Roman" transform="matrix(1,0,0,1,5,5)"><tspan id="v-4393" class="v-line v-empty-line" dy="0em" style="fill-opacity: 0; stroke-opacity: 0;">-</tspan></text></g></g><g model-id="5d8448dc-14b4-4bcb-b889-c293c6cada3e" id="j_324" class="joint-cell joint-type-uml joint-type-uml-class joint-element joint-theme-default" data-type="uml.Class" fill="#ffffff" stroke="none" transform="translate(510,383)"><g class="rotatable" id="v-4394"><g class="scalable" transform="scale(2.347666015625,0.69)"><rect class="uml-class-name-rect" id="v-4395" width="200" stroke="#ffffff" stroke-width="0.5" fill="#feb662" height="40" transform="translate(0,0)"/><rect class="uml-class-attrs-rect" id="v-4396" width="200" stroke="#fff" stroke-width="0.5" fill="#fdc886" height="160" transform="translate(0,40)"/><rect class="uml-class-methods-rect" id="v-4397" width="200" stroke="#fff" stroke-width="0.5" fill="#fdc886" display="none" height="20" transform="translate(0,200)"/></g><text class="uml-class-name-text" id="v-4398" font-size="12" xml:space="preserve" y="0.8em" text-anchor="middle" font-weight="bold" fill="black" font-family="Times New Roman" transform="matrix(1,0,0,1,234.8,8.4)"><tspan id="v-4401" class="v-line" dy="0em">Machine</tspan></text><text class="uml-class-attrs-text" id="v-4399" font-size="12" xml:space="preserve" y="0.8em" fill="black" font-family="monospace" transform="matrix(1,0,0,1,5,40.9)"><tspan id="v-4402" class="v-line" dy="0em">INT              id                  PK</tspan><tspan id="v-4403" class="v-line" dy="1em" x="0">INT              machine_size_id     NN FK -&gt; Machine_Size.id</tspan><tspan id="v-4404" class="v-line" dy="1em" x="0">VARCHAR(10)      code                NN UQ</tspan><tspan id="v-4405" class="v-line" dy="1em" x="0">INT              duration            NN</tspan><tspan id="v-4406" class="v-line" dy="1em" x="0">BOOLEAN          status_available    NN</tspan><tspan id="v-4407" class="v-line" dy="1em" x="0">BOOLEAN          status_health       NN</tspan><tspan id="v-4408" class="v-line" dy="1em" x="0">DATETIME         create_at           NN</tspan></text><text class="uml-class-methods-text" id="v-4400" font-size="12" display="none" xml:space="preserve" y="0.8em" fill="black" font-family="Times New Roman" transform="matrix(1,0,0,1,5,5)"><tspan id="v-4409" class="v-line v-empty-line" dy="0em" style="fill-opacity: 0; stroke-opacity: 0;">-</tspan></text></g></g><g model-id="c792277f-c558-4eed-a215-18b563c56143" id="j_325" class="joint-cell joint-type-uml joint-type-uml-class joint-element joint-theme-default" data-type="uml.Class" fill="#ffffff" stroke="none" transform="translate(406,133)"><g class="rotatable" id="v-4410"><g class="scalable" transform="scale(2.23220703125,0.6928571428571428)"><rect class="uml-class-name-rect" id="v-4411" width="200" stroke="#ffffff" stroke-width="0.5" fill="#feb662" height="40" transform="translate(0,0)"/><rect class="uml-class-attrs-rect" id="v-4412" width="200" stroke="#fff" stroke-width="0.5" fill="#fdc886" height="240" transform="translate(0,40)"/><rect class="uml-class-methods-rect" id="v-4413" width="200" stroke="#fff" stroke-width="0.5" fill="#fdc886" display="none" height="20" transform="translate(0,280)"/></g><text class="uml-class-name-text" id="v-4414" font-size="12" xml:space="preserve" y="0.8em" text-anchor="middle" font-weight="bold" fill="black" font-family="Times New Roman" transform="matrix(1,0,0,1,223.2,8.5)"><tspan id="v-4417" class="v-line" dy="0em">Reserve_Machine</tspan></text><text class="uml-class-attrs-text" id="v-4415" font-size="12" xml:space="preserve" y="0.8em" fill="black" font-family="monospace" transform="matrix(1,0,0,1,5,44.9)"><tspan id="v-4418" class="v-line" dy="0em">INT              id                  PK AI</tspan><tspan id="v-4419" class="v-line" dy="1em" x="0">INT              user_id             NN FK -&gt; Users.id</tspan><tspan id="v-4420" class="v-line" dy="1em" x="0">INT              machine_id          FK -&gt; Machine.id</tspan><tspan id="v-4421" class="v-line" dy="1em" x="0">INT              machine_size_id     FK -&gt; Machine_Size.id</tspan><tspan id="v-4422" class="v-line" dy="1em" x="0">CHAR(6)          code                NN</tspan><tspan id="v-4423" class="v-line" dy="1em" x="0">INT              cost                NN</tspan><tspan id="v-4424" class="v-line" dy="1em" x="0">DATETIME         arrive_at           NN</tspan><tspan id="v-4425" class="v-line" dy="1em" x="0">ENUM("waiting",  status              NN</tspan><tspan id="v-4426" class="v-line" dy="1em" x="0">DATETIME         create_at           NN</tspan><tspan id="v-4427" class="v-line" dy="1em" x="0">DATETIME         actual_arrive</tspan><tspan id="v-4428" class="v-line" dy="1em" x="0">DATETIME         work_at</tspan></text><text class="uml-class-methods-text" id="v-4416" font-size="12" display="none" xml:space="preserve" y="0.8em" fill="black" font-family="Times New Roman" transform="matrix(1,0,0,1,5,5)"><tspan id="v-4429" class="v-line v-empty-line" dy="0em" style="fill-opacity: 0; stroke-opacity: 0;">-</tspan></text></g></g><g model-id="6e1969b0-3eb0-4a27-8ac5-058a5216a3df" id="j_326" class="joint-cell joint-type-uml joint-type-uml-class joint-element joint-theme-default" data-type="uml.Class" fill="#ffffff" stroke="none" transform="translate(0,382)"><g class="rotatable" id="v-4430"><g class="scalable" transform="scale(2.463125,0.6857142857142857)"><rect class="uml-class-name-rect" id="v-4431" width="200" stroke="#ffffff" stroke-width="0.5" fill="#feb662" height="40" transform="translate(0,0)"/><rect class="uml-class-attrs-rect" id="v-4432" width="200" stroke="#fff" stroke-width="0.5" fill="#fdc886" height="100" transform="translate(0,40)"/><rect class="uml-class-methods-rect" id="v-4433" width="200" stroke="#fff" stroke-width="0.5" fill="#fdc886" display="none" height="20" transform="translate(0,140)"/></g><text class="uml-class-name-text" id="v-4434" font-size="12" xml:space="preserve" y="0.8em" text-anchor="middle" font-weight="bold" fill="black" font-family="Times New Roman" transform="matrix(1,0,0,1,246.3,8.3)"><tspan id="v-4437" class="v-line" dy="0em">Review_Reserve</tspan></text><text class="uml-class-attrs-text" id="v-4435" font-size="12" xml:space="preserve" y="0.8em" fill="black" font-family="monospace" transform="matrix(1,0,0,1,5,37.8)"><tspan id="v-4438" class="v-line" dy="0em">INT              reserve_id          PK FK -&gt; Reserve_Machine.id</tspan><tspan id="v-4439" class="v-line" dy="1em" x="0">ENUM(1,2,3,4,5)  rating              NN</tspan><tspan id="v-4440" class="v-line" dy="1em" x="0">TEXT             description</tspan><tspan id="v-4441" class="v-line" dy="1em" x="0">DATETIME         create_at           NN</tspan></text><text class="uml-class-methods-text" id="v-4436" font-size="12" display="none" xml:space="preserve" y="0.8em" fill="black" font-family="Times New Roman" transform="matrix(1,0,0,1,5,5)"><tspan id="v-4442" class="v-line v-empty-line" dy="0em" style="fill-opacity: 0; stroke-opacity: 0;">-</tspan></text></g></g><g model-id="df0fdddc-daf0-4d4c-be49-7072c893fa25" id="j_327" class="joint-cell joint-type-uml joint-type-uml-class joint-element joint-theme-default" data-type="uml.Class" fill="#ffffff" stroke="none" transform="translate(937,195)"><g class="rotatable" id="v-4443"><g class="scalable" transform="scale(1.61642578125,0.6833333333333333)"><rect class="uml-class-name-rect" id="v-4444" width="200" stroke="#ffffff" stroke-width="0.5" fill="#feb662" height="40" transform="translate(0,0)"/><rect class="uml-class-attrs-rect" id="v-4445" width="200" stroke="#fff" stroke-width="0.5" fill="#fdc886" height="80" transform="translate(0,40)"/><rect class="uml-class-methods-rect" id="v-4446" width="200" stroke="#fff" stroke-width="0.5" fill="#fdc886" display="none" height="20" transform="translate(0,120)"/></g><text class="uml-class-name-text" id="v-4447" font-size="12" xml:space="preserve" y="0.8em" text-anchor="middle" font-weight="bold" fill="black" font-family="Times New Roman" transform="matrix(1,0,0,1,161.6,8.3)"><tspan id="v-4450" class="v-line" dy="0em">Machine_Size</tspan></text><text class="uml-class-attrs-text" id="v-4448" font-size="12" xml:space="preserve" y="0.8em" fill="black" font-family="monospace" transform="matrix(1,0,0,1,5,36.8)"><tspan id="v-4451" class="v-line" dy="0em">INT              id                  PK AI</tspan><tspan id="v-4452" class="v-line" dy="1em" x="0">VARCHAR(15)      size                NN</tspan><tspan id="v-4453" class="v-line" dy="1em" x="0">INT              capacity</tspan></text><text class="uml-class-methods-text" id="v-4449" font-size="12" display="none" xml:space="preserve" y="0.8em" fill="black" font-family="Times New Roman" transform="matrix(1,0,0,1,5,5)"><tspan id="v-4454" class="v-line v-empty-line" dy="0em" style="fill-opacity: 0; stroke-opacity: 0;">-</tspan></text></g></g><g model-id="6a4ef8b7-b8a6-4c02-85a1-fd65d844f479" id="j_328" class="joint-cell joint-type-uml joint-type-uml-class joint-element joint-theme-default" data-type="uml.Class" fill="#ffffff" stroke="none" transform="translate(2,0)"><g class="rotatable" id="v-4455"><g class="scalable" transform="scale(1.61642578125,0.6833333333333333)"><rect class="uml-class-name-rect" id="v-4456" width="200" stroke="#ffffff" stroke-width="0.5" fill="#feb662" height="40" transform="translate(0,0)"/><rect class="uml-class-attrs-rect" id="v-4457" width="200" stroke="#fff" stroke-width="0.5" fill="#fdc886" height="80" transform="translate(0,40)"/><rect class="uml-class-methods-rect" id="v-4458" width="200" stroke="#fff" stroke-width="0.5" fill="#fdc886" display="none" height="20" transform="translate(0,120)"/></g><text class="uml-class-name-text" id="v-4459" font-size="12" xml:space="preserve" y="0.8em" text-anchor="middle" font-weight="bold" fill="black" font-family="Times New Roman" transform="matrix(1,0,0,1,161.6,8.3)"><tspan id="v-4462" class="v-line" dy="0em">Service</tspan></text><text class="uml-class-attrs-text" id="v-4460" font-size="12" xml:space="preserve" y="0.8em" fill="black" font-family="monospace" transform="matrix(1,0,0,1,5,36.8)"><tspan id="v-4463" class="v-line" dy="0em">INT              id                  PK AI</tspan><tspan id="v-4464" class="v-line" dy="1em" x="0">VARCHAR(50)      name                NN</tspan><tspan id="v-4465" class="v-line" dy="1em" x="0">INT              price               NN</tspan></text><text class="uml-class-methods-text" id="v-4461" font-size="12" display="none" xml:space="preserve" y="0.8em" fill="black" font-family="Times New Roman" transform="matrix(1,0,0,1,5,5)"><tspan id="v-4466" class="v-line v-empty-line" dy="0em" style="fill-opacity: 0; stroke-opacity: 0;">-</tspan></text></g></g><g model-id="6c8e643f-102c-4bed-9bb2-1961713589cc" id="j_329" class="joint-cell joint-type-uml joint-type-uml-class joint-element joint-theme-default" data-type="uml.Class" fill="#ffffff" stroke="none" transform="translate(392,3)"><g class="rotatable" id="v-4467"><g class="scalable" transform="scale(2.463125,0.68)"><rect class="uml-class-name-rect" id="v-4468" width="200" stroke="#ffffff" stroke-width="0.5" fill="#feb662" height="40" transform="translate(0,0)"/><rect class="uml-class-attrs-rect" id="v-4469" width="200" stroke="#fff" stroke-width="0.5" fill="#fdc886" height="60" transform="translate(0,40)"/><rect class="uml-class-methods-rect" id="v-4470" width="200" stroke="#fff" stroke-width="0.5" fill="#fdc886" display="none" height="20" transform="translate(0,100)"/></g><text class="uml-class-name-text" id="v-4471" font-size="12" xml:space="preserve" y="0.8em" text-anchor="middle" font-weight="bold" fill="black" font-family="Times New Roman" transform="matrix(1,0,0,1,246.3,8.2)"><tspan id="v-4474" class="v-line" dy="0em">Reserve_Service</tspan></text><text class="uml-class-attrs-text" id="v-4472" font-size="12" xml:space="preserve" y="0.8em" fill="black" font-family="monospace" transform="matrix(1,0,0,1,5,35.7)"><tspan id="v-4475" class="v-line" dy="0em">INT              reserve_id          PK FK -&gt; Reserve_Machine.id</tspan><tspan id="v-4476" class="v-line" dy="1em" x="0">INT              service_id          PK FK -&gt; Service.id</tspan></text><text class="uml-class-methods-text" id="v-4473" font-size="12" display="none" xml:space="preserve" y="0.8em" fill="black" font-family="Times New Roman" transform="matrix(1,0,0,1,5,5)"><tspan id="v-4477" class="v-line v-empty-line" dy="0em" style="fill-opacity: 0; stroke-opacity: 0;">-</tspan></text></g></g><g model-id="0ff25a37-d1eb-4c69-8158-24b53bdc0856" id="j_330" class="joint-cell joint-type-uml joint-type-uml-relationship joint-type-uml-relationship-nonidentifying joint-type-uml-relationship-nonidentifying-mandatory_one_optional_many joint-link joint-theme-default" data-type="uml.relationship.nonidentifying.mandatory_one_optional_many" fill="transparent"><path class="connection" stroke="black" d="M 875 373 1019 285" id="v-4488" stroke-dasharray="3,3"/><path class="marker-source" fill="none" stroke="black" d="M 0 0 L 10 10 L 0 10 L 10 10 L 0 20 L 10 10 a 5,5 0 1,0 10,0 a 5,5 0 1,0 -10,0" id="v-4486" transform="translate(852.7974274294668,374.4599180714686) scale(1,1) rotate(-31.349580764770508)"/><path class="marker-target" fill="none" stroke="black" d="M 0 0 L 10 0 M 10 0 L 10 10 L 10 -10 M 15 0 L 15 10 L 15 -10" id="v-4487" transform="translate(1032.0000379254413,277.00000982598647) scale(1,1) rotate(-211.34957885742188)"/><path class="connection-wrap" d="M 875 373 1019 285"/><g class="labels"><g class="label" id="v-4482" label-idx="0" cursor="default" transform="translate(947, 329)" fill="black"><rect id="v-4484" fill="white" rx="3" ry="3" width="0" height="0" transform="matrix(1,0,0,1,0,0)"/><text id="v-4483" font-size="14" display="none" xml:space="preserve" y="0.8em" text-anchor="middle" pointer-events="none"><tspan id="v-4485" class="v-line v-empty-line" dy="0em" style="fill-opacity: 0; stroke-opacity: 0;">-</tspan></text></g></g></g><g model-id="2ad066b2-3c23-4bd7-8b9c-57fafff677b2" id="j_331" class="joint-cell joint-type-uml joint-type-uml-relationship joint-type-uml-relationship-nonidentifying joint-type-uml-relationship-nonidentifying-mandatory_one_optional_many joint-link joint-theme-default" data-type="uml.relationship.nonidentifying.mandatory_one_optional_many" fill="transparent"><path class="connection" stroke="black" d="M 386 232 339 233" id="v-4499" stroke-dasharray="3,3"/><path class="marker-source" fill="none" stroke="black" d="M 0 0 L 10 10 L 0 10 L 10 10 L 0 20 L 10 10 a 5,5 0 1,0 10,0 a 5,5 0 1,0 -10,0" id="v-4497" transform="translate(406.12193201188904,241.99926158434178) scale(1,1) rotate(-180.69869995117188)"/><path class="marker-target" fill="none" stroke="black" d="M 0 0 L 10 0 M 10 0 L 10 10 L 10 -10 M 15 0 L 15 10 L 15 -10" id="v-4498" transform="translate(324.00000832518236,232.99999543575336) scale(1,1) rotate(-0.6986944079399109)"/><path class="connection-wrap" d="M 386 232 339 233"/><g class="labels"><g class="label" id="v-4493" label-idx="0" cursor="default" transform="translate(362.5, 232.5)" fill="black"><rect id="v-4495" fill="white" rx="3" ry="3" width="0" height="0" transform="matrix(1,0,0,1,0,0)"/><text id="v-4494" font-size="14" display="none" xml:space="preserve" y="0.8em" text-anchor="middle" pointer-events="none"><tspan id="v-4496" class="v-line v-empty-line" dy="0em" style="fill-opacity: 0; stroke-opacity: 0;">-</tspan></text></g></g></g><g model-id="6a612a98-6985-46e4-9c56-6424acee8f12" id="j_332" class="joint-cell joint-type-uml joint-type-uml-relationship joint-type-uml-relationship-nonidentifying joint-type-uml-relationship-nonidentifying-mandatory_one_optional_many joint-link joint-theme-default" data-type="uml.relationship.nonidentifying.mandatory_one_optional_many" fill="transparent"><path class="connection" stroke="black" d="M 689 345 702 370" id="v-4510" stroke-dasharray="3,3"/><path class="marker-source" fill="none" stroke="black" d="M 0 0 L 10 10 L 0 10 L 10 10 L 0 20 L 10 10 a 5,5 0 1,0 10,0 a 5,5 0 1,0 -10,0" id="v-4508" transform="translate(688.8799702663754,322.4014562849466) scale(1,1) rotate(62.622283935546875)"/><path class="marker-target" fill="none" stroke="black" d="M 0 0 L 10 0 M 10 0 L 10 10 L 10 -10 M 15 0 L 15 10 L 15 -10" id="v-4509" transform="translate(708.9999930547565,382.99998504337134) scale(1,1) rotate(-117.37770080566406)"/><path class="connection-wrap" d="M 689 345 702 370"/><g class="labels"><g class="label" id="v-4504" label-idx="0" cursor="default" transform="translate(695.5, 357.5)" fill="black"><rect id="v-4506" fill="white" rx="3" ry="3" width="0" height="0" transform="matrix(1,0,0,1,0,0)"/><text id="v-4505" font-size="14" display="none" xml:space="preserve" y="0.8em" text-anchor="middle" pointer-events="none"><tspan id="v-4507" class="v-line v-empty-line" dy="0em" style="fill-opacity: 0; stroke-opacity: 0;">-</tspan></text></g></g></g><g model-id="1ea56b3c-5a1e-49e7-af26-9b8ca5ba4d4b" id="j_333" class="joint-cell joint-type-uml joint-type-uml-relationship joint-type-uml-relationship-nonidentifying joint-type-uml-relationship-nonidentifying-mandatory_one_optional_many joint-link joint-theme-default" data-type="uml.relationship.nonidentifying.mandatory_one_optional_many" fill="transparent"><path class="connection" stroke="black" d="M 872 233 922 234" id="v-4521" stroke-dasharray="3,3"/><path class="marker-source" fill="none" stroke="black" d="M 0 0 L 10 10 L 0 10 L 10 10 L 0 20 L 10 10 a 5,5 0 1,0 10,0 a 5,5 0 1,0 -10,0" id="v-4519" transform="translate(852.1176603573725,223.00069747888193) scale(1,1) rotate(0.674041748046875)"/><path class="marker-target" fill="none" stroke="black" d="M 0 0 L 10 0 M 10 0 L 10 10 L 10 -10 M 15 0 L 15 10 L 15 -10" id="v-4520" transform="translate(937.0000303316682,234.0000035049711) scale(1,1) rotate(-179.32595825195312)"/><path class="connection-wrap" d="M 872 233 922 234"/><g class="labels"><g class="label" id="v-4515" label-idx="0" cursor="default" transform="translate(897, 233.5)" fill="black"><rect id="v-4517" fill="white" rx="3" ry="3" width="0" height="0" transform="matrix(1,0,0,1,0,0)"/><text id="v-4516" font-size="14" display="none" xml:space="preserve" y="0.8em" text-anchor="middle" pointer-events="none"><tspan id="v-4518" class="v-line v-empty-line" dy="0em" style="fill-opacity: 0; stroke-opacity: 0;">-</tspan></text></g></g></g><g model-id="886652a3-0e40-40a8-adf1-f82c66ff7394" id="j_334" class="joint-cell joint-type-uml joint-type-uml-relationship joint-type-uml-relationship-identifying joint-type-uml-relationship-identifying-mandatory_one_optional_one joint-link joint-theme-default" data-type="uml.relationship.identifying.mandatory_one_optional_one" fill="transparent"><path class="connection" stroke="black" d="M 359 371 430 334"/><path class="marker-source" fill="none" stroke="black" d="M 10 0 L 10 20 L 10 10 L 0 10 L 14 10 a 5,5 0 1,0 10,0 a 5,5 0 1,0 -10,0" id="v-4530" transform="translate(333.3599260095706,373.14168379960057) scale(1,1) rotate(-27.645975112915032)"/><path class="marker-target" fill="none" stroke="black" d="M 0 0 L 10 0 M 10 0 L 10 10 L 10 -10 M 15 0 L 15 10 L 15 -10" id="v-4531" transform="translate(442.9999983893192,326.9999884094611) scale(1,1) rotate(-207.64598083496094)"/><path class="connection-wrap" d="M 359 371 430 334"/><g class="labels"><g class="label" id="v-4526" label-idx="0" cursor="default" transform="translate(394.5, 352.5)" fill="black"><rect id="v-4528" fill="white" rx="3" ry="3" width="0" height="0" transform="matrix(1,0,0,1,0,0)"/><text id="v-4527" font-size="14" display="none" xml:space="preserve" y="0.8em" text-anchor="middle" pointer-events="none"><tspan id="v-4529" class="v-line v-empty-line" dy="0em" style="fill-opacity: 0; stroke-opacity: 0;">-</tspan></text></g></g></g><g model-id="95c32ddd-869a-4ea6-aeef-cc774e825598" id="j_335" class="joint-cell joint-type-uml joint-type-uml-relationship joint-type-uml-relationship-identifying joint-type-uml-relationship-identifying-mandatory_one_optional_many joint-link joint-theme-default" data-type="uml.relationship.identifying.mandatory_one_optional_many" fill="transparent"><path class="connection" stroke="black" d="M 636 91 635 118"/><path class="marker-source" fill="none" stroke="black" d="M 0 0 L 10 10 L 0 10 L 10 10 L 0 20 L 10 10 a 5,5 0 1,0 10,0 a 5,5 0 1,0 -10,0" id="v-4540" transform="translate(646.9883409246246,71.48330091572625) scale(1,1) rotate(-267.22979736328125)"/><path class="marker-target" fill="none" stroke="black" d="M 0 0 L 10 0 M 10 0 L 10 10 L 10 -10 M 15 0 L 15 10 L 15 -10" id="v-4541" transform="translate(634.0000083829469,133.00000163165654) scale(1,1) rotate(-87.22978210449219)"/><path class="connection-wrap" d="M 636 91 635 118"/><g class="labels"><g class="label" id="v-4536" label-idx="0" cursor="default" transform="translate(635.5, 104.5)" fill="black"><rect id="v-4538" fill="white" rx="3" ry="3" width="0" height="0" transform="matrix(1,0,0,1,0,0)"/><text id="v-4537" font-size="14" display="none" xml:space="preserve" y="0.8em" text-anchor="middle" pointer-events="none"><tspan id="v-4539" class="v-line v-empty-line" dy="0em" style="fill-opacity: 0; stroke-opacity: 0;">-</tspan></text></g></g></g><g model-id="bfc2c662-e79e-4e30-a6b3-751659d924ad" id="j_336" class="joint-cell joint-type-uml joint-type-uml-relationship joint-type-uml-relationship-identifying joint-type-uml-relationship-identifying-mandatory_one_optional_many joint-link joint-theme-default" data-type="uml.relationship.identifying.mandatory_one_optional_many" fill="transparent"><path class="connection" stroke="black" d="M 372 39 340 40"/><path class="marker-source" fill="none" stroke="black" d="M 0 0 L 10 10 L 0 10 L 10 10 L 0 20 L 10 10 a 5,5 0 1,0 10,0 a 5,5 0 1,0 -10,0" id="v-4550" transform="translate(392.1492229788827,48.99888691805153) scale(1,1) rotate(-180.8551025390625)"/><path class="marker-target" fill="none" stroke="black" d="M 0 0 L 10 0 M 10 0 L 10 10 L 10 -10 M 15 0 L 15 10 L 15 -10" id="v-4551" transform="translate(325.00001126124096,40.000000802028914) scale(1,1) rotate(-0.8550974130630493)"/><path class="connection-wrap" d="M 372 39 340 40"/><g class="labels"><g class="label" id="v-4546" label-idx="0" cursor="default" transform="translate(356, 39.5)" fill="black"><rect id="v-4548" fill="white" rx="3" ry="3" width="0" height="0" transform="matrix(1,0,0,1,0,0)"/><text id="v-4547" font-size="14" display="none" xml:space="preserve" y="0.8em" text-anchor="middle" pointer-events="none"><tspan id="v-4549" class="v-line v-empty-line" dy="0em" style="fill-opacity: 0; stroke-opacity: 0;">-</tspan></text></g></g></g></g><defs id="v-4"/></svg>