<?xml version="1.0" standalone="no"?>
<!DOCTYPE svg PUBLIC "-//W3C//DTD SVG 20010904//EN"
 "http://www.w3.org/TR/2001/REC-SVG-20010904/DTD/svg10.dtd">
<svg version="1.0" xmlns="http://www.w3.org/2000/svg"
 width="512.000000pt" height="512.000000pt" viewBox="0 0 512.000000 512.000000"
 preserveAspectRatio="xMidYMid meet">

<g transform="translate(0.000000,512.000000) scale(0.100000,-0.100000)"
fill="#ffffff" stroke="none">
<path d="M725 4951 c-90 -22 -172 -90 -215 -176 l-25 -50 0 -2165 0 -2165 27
-51 c40 -76 70 -107 140 -145 l63 -34 1845 0 1845 0 63 34 c70 38 100 69 140
145 l27 51 0 2165 0 2165 -34 63 c-38 70 -69 100 -145 140 l-51 27 -1825 2
c-1004 0 -1838 -2 -1855 -6z m3681 -177 c15 -11 37 -33 48 -48 20 -27 21 -41
24 -457 l3 -429 -1921 0 -1920 0 0 414 c0 270 4 425 11 443 14 37 47 73 84 89
25 11 346 13 1837 11 l1807 -2 27 -21z m72 -2723 c-3 -1628 -3 -1630 -24
-1657 -11 -15 -33 -37 -48 -48 l-27 -21 -1819 0 -1819 0 -27 21 c-15 11 -37
33 -48 48 -21 27 -21 29 -24 1657 l-2 1629 1920 0 1920 0 -2 -1629z"/>
<path d="M825 4615 c-25 -24 -25 -26 -25 -215 0 -189 0 -191 25 -215 l24 -25
431 0 431 0 24 25 c25 24 25 26 25 215 0 189 0 191 -25 215 l-24 25 -431 0
-431 0 -24 -25z m775 -215 l0 -80 -320 0 -320 0 0 80 0 80 320 0 320 0 0 -80z"/>
<path d="M2965 4631 c-92 -24 -173 -90 -215 -176 -19 -41 -24 -66 -24 -135 -1
-78 2 -90 33 -148 38 -70 70 -100 145 -140 43 -22 64 -26 136 -26 72 0 93 4
136 26 75 40 107 70 145 140 31 58 34 70 33 148 0 72 -4 93 -26 136 -39 75
-70 107 -137 143 -65 34 -164 49 -226 32z m138 -165 c103 -43 128 -177 48
-257 -112 -113 -296 -12 -267 146 18 94 128 150 219 111z"/>
<path d="M3520 4480 l0 -80 80 0 80 0 0 80 0 80 -80 0 -80 0 0 -80z"/>
<path d="M3840 4480 l0 -80 80 0 80 0 0 80 0 80 -80 0 -80 0 0 -80z"/>
<path d="M4160 4480 l0 -80 80 0 80 0 0 80 0 80 -80 0 -80 0 0 -80z"/>
<path d="M3520 4160 l0 -80 80 0 80 0 0 80 0 80 -80 0 -80 0 0 -80z"/>
<path d="M3840 4160 l0 -80 80 0 80 0 0 80 0 80 -80 0 -80 0 0 -80z"/>
<path d="M4160 4160 l0 -80 80 0 80 0 0 80 0 80 -80 0 -80 0 0 -80z"/>
<path d="M2415 3513 c-378 -45 -698 -201 -950 -464 -208 -217 -343 -480 -402
-784 -24 -125 -24 -406 0 -530 62 -314 191 -566 406 -789 489 -507 1265 -612
1866 -251 382 229 634 593 722 1040 24 125 24 405 0 530 -68 342 -214 608
-463 844 -283 267 -661 415 -1049 410 -55 -1 -113 -4 -130 -6z m403 -178 c411
-80 770 -353 960 -731 43 -86 98 -249 119 -352 24 -120 24 -384 0 -504 -73
-368 -292 -692 -602 -890 -142 -92 -315 -161 -483 -195 -124 -25 -385 -24
-507 1 -774 160 -1251 907 -1064 1665 133 538 589 944 1149 1021 92 13 330 4
428 -15z"/>
<path d="M2440 3195 c-8 -2 -49 -9 -90 -15 -358 -58 -694 -309 -862 -645 -89
-177 -122 -320 -123 -530 0 -163 11 -239 56 -377 97 -300 319 -557 607 -702
85 -43 216 -87 317 -107 103 -21 349 -18 455 5 362 78 668 314 834 644 84 168
121 329 121 532 0 157 -12 236 -56 372 -96 297 -319 557 -599 698 -167 84
-307 119 -505 125 -77 2 -147 2 -155 0z m266 -166 c153 -21 331 -92 459 -184
68 -48 205 -187 251 -255 81 -118 146 -280 169 -425 13 -75 21 -245 13 -245
-2 0 -28 10 -58 22 -81 32 -196 30 -270 -4 -78 -36 -125 -81 -225 -213 -102
-135 -148 -169 -230 -169 -81 0 -123 31 -225 164 -148 195 -221 244 -365 244
-142 1 -219 -50 -360 -234 -40 -53 -89 -110 -108 -127 -32 -28 -90 -53 -123
-53 -7 0 -24 30 -38 66 -131 326 -85 703 119 989 48 68 187 205 256 252 114
79 302 153 434 172 87 12 212 13 301 0z m-398 -1243 c41 -22 75 -57 155 -164
133 -175 212 -226 352 -226 139 0 232 60 359 233 112 153 182 196 276 172 50
-14 110 -55 110 -76 0 -20 -42 -131 -75 -195 -71 -141 -218 -308 -345 -391
-369 -243 -813 -238 -1178 14 -74 51 -242 218 -242 241 0 7 17 18 38 24 63 20
133 83 224 202 94 125 132 162 181 178 39 13 108 7 145 -12z"/>
<path d="M2560 2883 l0 -80 66 -6 c157 -15 311 -76 430 -171 75 -60 120 -109
179 -198 21 -32 42 -58 47 -58 5 0 36 15 69 33 41 22 57 37 53 47 -16 46 -79
133 -148 207 -164 174 -377 278 -614 298 l-82 8 0 -80z"/>
</g>
</svg>
